 <svg  version="1.0" xmlns="http://www.w3.org/2000/svg"  width="300.000000pt" height="181.000000pt" viewBox="0 0 300.000000 181.000000"  preserveAspectRatio="xMidYMid meet">  <g transform="translate(0.000000,181.000000) scale(0.100000,-0.100000)" fill="#1455d7" stroke="none"> <path d="M2935 1582 c-33 -16 -73 -40 -90 -53 -16 -14 -65 -48 -108 -77 -77 -53 -92 -58 -233 -78 -17 -2 -57 -24 -90 -48 -59 -44 -79 -62 -182 -169 -30 -32 -83 -74 -116 -94 -63 -37 -208 -130 -261 -166 -74 -52 -427 -227 -457 -227 -19 0 -138 -50 -193 -81 -88 -50 -195 -90 -329 -125 -72 -18 -162 -49 -201 -67 -38 -19 -90 -42 -115 -52 -25 -10 -70 -29 -100 -43 -84 -37 -130 -52 -162 -52 -16 0 -43 -7 -59 -16 -38 -19 -203 -74 -224 -74 -8 0 -15 -6 -15 -13 0 -13 45 -13 80 0 8 3 26 8 40 10 13 2 27 7 30 11 3 4 10 8 15 9 6 1 44 13 85 27 41 13 87 26 102 28 15 2 30 7 34 11 4 4 13 7 20 7 8 0 38 11 68 25 30 14 60 25 65 25 6 0 11 4 11 8 0 4 10 9 22 9 13 1 24 7 26 13 2 5 10 10 17 10 14 0 85 30 95 40 6 6 71 29 97 35 10 2 40 10 67 19 27 8 53 13 58 10 4 -3 8 0 8 5 0 6 16 11 35 11 19 0 35 5 35 10 0 6 9 10 20 10 11 0 28 4 38 9 114 61 293 143 323 147 22 4 39 10 39 14 0 3 6 7 14 7 7 0 44 15 82 33 38 19 71 35 74 35 10 2 136 64 165 81 40 24 111 69 220 140 50 32 109 69 133 82 58 31 84 53 177 148 44 45 109 102 145 127 55 39 74 46 118 48 29 2 55 6 58 11 3 4 14 8 25 8 27 0 93 38 200 115 49 35 105 70 124 76 22 8 35 20 35 31 0 10 -1 18 -2 18 -2 0 -30 -13 -63 -28z"/> <path d="M180 1323 c0 -129 1 -133 21 -133 20 0 21 4 16 55 l-6 55 60 0 c50 0 64 4 84 25 28 27 31 51 13 90 -13 29 -27 33 -121 37 l-67 3 0 -132z m156 70 c11 -42 -6 -58 -68 -61 l-55 -3 1 46 1 45 57 0 c54 0 58 -2 64 -27z"/> <path d="M420 1325 c0 -113 2 -135 15 -135 13 0 15 22 15 135 0 113 -2 135 -15 135 -13 0 -15 -22 -15 -135z"/> <path d="M1090 1325 c0 -113 2 -135 15 -135 12 0 15 14 15 68 0 71 16 102 51 102 30 0 39 -24 39 -97 0 -58 3 -73 15 -73 12 0 15 16 15 80 0 67 -3 83 -20 100 -24 24 -48 25 -78 4 -22 -15 -22 -15 -22 35 0 39 -4 51 -15 51 -13 0 -15 -22 -15 -135z"/> <path d="M1490 1326 c0 -130 1 -136 20 -136 20 0 20 5 18 132 -3 117 -5 133 -20 136 -16 3 -18 -8 -18 -132z"/> <path d="M1695 1449 c-4 -6 -4 -26 -1 -45 8 -38 7 -39 -29 -22 -78 35 -140 -107 -74 -173 22 -22 68 -25 88 -6 11 10 14 10 18 0 3 -7 11 -13 19 -13 11 0 14 25 14 135 0 111 -3 135 -14 135 -8 0 -18 -5 -21 -11z m-16 -98 c13 -7 16 -21 15 -55 -2 -53 -17 -76 -48 -76 -33 0 -46 19 -46 66 0 62 33 89 79 65z"/> <path d="M530 1378 c-28 -15 -40 -48 -17 -48 8 0 20 7 27 16 20 23 74 15 78 -12 3 -18 -3 -22 -43 -26 -52 -6 -85 -31 -85 -63 0 -45 63 -70 111 -45 13 8 19 7 19 0 0 -6 8 -10 17 -8 15 3 17 14 15 83 -2 46 -9 85 -16 93 -19 19 -78 24 -106 10z m90 -111 c0 -32 -18 -47 -56 -47 -55 0 -50 53 6 63 47 8 50 7 50 -16z"/> <path d="M740 1377 c-35 -18 -52 -55 -46 -102 9 -79 91 -111 144 -58 25 25 25 28 8 31 -10 2 -23 -3 -28 -12 -11 -19 -59 -21 -76 -4 -18 18 -15 94 4 112 22 22 50 20 68 -5 9 -14 21 -19 31 -15 33 12 -22 66 -68 66 -7 0 -23 -6 -37 -13z"/> <path d="M918 1375 c-36 -20 -53 -74 -38 -120 23 -68 98 -88 148 -38 25 25 25 28 8 31 -10 2 -23 -3 -28 -12 -19 -34 -98 -10 -98 30 0 11 16 14 70 14 68 0 70 1 70 24 0 59 -78 101 -132 71z m80 -27 c24 -24 12 -36 -38 -40 -53 -3 -60 4 -33 34 18 21 53 24 71 6z"/> <path d="M1309 1361 c-61 -62 -25 -171 56 -171 53 0 85 36 85 94 0 59 -7 74 -41 91 -42 22 -67 18 -100 -14z m95 -23 c35 -49 11 -118 -39 -118 -49 0 -71 82 -34 127 17 20 56 16 73 -9z"/> <path d="M1815 1378 c-34 -19 -44 -41 -45 -91 0 -60 31 -97 83 -97 33 0 87 31 87 51 0 15 -37 10 -44 -6 -8 -21 -59 -19 -79 3 -31 34 -21 42 53 42 69 0 70 1 70 26 0 32 -50 84 -82 84 -13 0 -32 -6 -43 -12z m83 -45 c14 -23 14 -23 -42 -23 -61 0 -65 4 -39 32 22 24 61 20 81 -9z"/> <path d="M2032 1374 c-12 -8 -22 -10 -22 -5 0 6 -7 11 -15 11 -12 0 -15 -17 -15 -96 0 -84 2 -95 17 -92 14 2 16 14 14 66 -3 70 8 92 45 92 17 0 24 6 24 20 0 24 -18 26 -48 4z"/> <path d="M180 921 l0 -129 80 -4 c71 -3 80 -1 80 15 0 14 -10 17 -62 17 l-63 0 3 115 c4 111 3 115 -17 115 -20 0 -21 -5 -21 -129z"/> <path d="M395 955 c-33 -32 -35 -110 -5 -142 61 -66 150 -25 150 69 0 62 -31 98 -85 98 -25 0 -44 -8 -60 -25z m99 -27 c32 -46 8 -118 -39 -118 -28 0 -55 34 -55 70 0 36 27 70 55 70 13 0 31 -10 39 -22z"/> <path d="M600 960 c-74 -74 5 -233 82 -163 17 15 18 15 18 -8 0 -14 -5 -30 -12 -37 -17 -17 -67 -15 -74 3 -7 16 -44 21 -44 6 0 -18 53 -51 80 -51 15 0 39 9 54 21 25 20 26 23 26 135 0 95 -3 114 -15 114 -8 0 -15 -5 -15 -10 0 -7 -6 -7 -19 0 -30 15 -59 12 -81 -10z m88 -19 c9 -5 12 -25 10 -62 -3 -48 -6 -55 -31 -63 -21 -8 -31 -6 -44 7 -21 21 -23 88 -4 111 14 17 48 21 69 7z"/> <path d="M803 956 c-24 -21 -28 -32 -28 -76 0 -44 4 -55 28 -76 16 -13 41 -24 57 -24 16 0 41 11 57 24 24 21 28 32 28 76 0 44 -4 55 -28 76 -16 13 -41 24 -57 24 -16 0 -41 -11 -57 -24z m97 -25 c15 -29 12 -87 -6 -105 -21 -22 -61 -20 -74 3 -14 27 -13 94 2 109 19 19 66 15 78 -7z"/> </g> </svg> 